<svg width="16" height="16" viewBox="0 0 16 16" fill="none" xmlns="http://www.w3.org/2000/svg">
<path d="M6.18628 0.102295C7.01051 0.0768653 7.97042 0.314266 8.8728 0.689209C9.77603 1.06452 10.6312 1.58125 11.2449 2.1228C12.4728 3.20668 13.1196 4.55152 13.2732 6.17944C13.3516 7.01044 13.0895 7.71176 12.6882 8.36108C12.3049 8.98127 11.7854 9.56878 11.3123 10.1726L15.1794 14.0408C15.2096 14.0424 15.2304 14.0571 15.24 14.0652C15.2501 14.0738 15.2563 14.0828 15.2595 14.0876C15.263 14.0929 15.2656 14.0978 15.2673 14.1013C15.2707 14.1083 15.2736 14.1151 15.2751 14.1199C15.2759 14.1221 15.2765 14.1245 15.2771 14.1267C15.2784 14.129 15.2798 14.1312 15.281 14.1335C15.2833 14.138 15.2862 14.1447 15.2888 14.1521C15.2901 14.1558 15.2914 14.1614 15.2927 14.1677C15.2939 14.1735 15.2958 14.1847 15.2947 14.198C15.2936 14.2098 15.2881 14.2307 15.2712 14.2517C15.2744 14.3474 15.2813 14.5066 15.2849 14.6716C15.2874 14.7842 15.2888 14.8979 15.2869 14.99C15.286 15.0324 15.2836 15.0714 15.281 15.1042C15.2839 15.1095 15.2871 15.114 15.2888 15.1189C15.29 15.1214 15.2927 15.1231 15.2937 15.1257C15.305 15.1553 15.2986 15.1818 15.2947 15.1941C15.2906 15.2065 15.2852 15.2156 15.282 15.2205C15.2784 15.2257 15.2748 15.2302 15.2722 15.2332C15.2671 15.2389 15.2614 15.2435 15.2576 15.2468C15.2555 15.2486 15.2529 15.25 15.2507 15.2517C15.2493 15.2535 15.2483 15.2559 15.2468 15.2576C15.2435 15.2614 15.2389 15.2671 15.2332 15.2722C15.2302 15.2748 15.2257 15.2784 15.2205 15.282C15.2156 15.2852 15.2065 15.2906 15.1941 15.2947C15.1818 15.2986 15.1553 15.305 15.1257 15.2937C15.1231 15.2927 15.1214 15.29 15.1189 15.2888C15.114 15.2871 15.1095 15.2839 15.1042 15.281C15.0714 15.2836 15.0324 15.286 14.99 15.2869C14.8979 15.2888 14.7842 15.2874 14.6716 15.2849C14.5066 15.2813 14.3473 15.2744 14.2517 15.2712C14.2307 15.2881 14.2098 15.2936 14.198 15.2947C14.1847 15.2958 14.1735 15.2939 14.1677 15.2927C14.1614 15.2914 14.1558 15.2901 14.1521 15.2888C14.1447 15.2862 14.138 15.2833 14.1335 15.281C14.1312 15.2798 14.129 15.2784 14.1267 15.2771C14.1245 15.2765 14.1221 15.2759 14.1199 15.2751C14.1151 15.2736 14.1083 15.2707 14.1013 15.2673C14.0978 15.2656 14.0929 15.263 14.0876 15.2595C14.0828 15.2563 14.0738 15.2501 14.0652 15.24C14.0571 15.2304 14.0424 15.2096 14.0408 15.1794L10.1736 11.3123C9.56977 11.7869 8.98258 12.3061 8.36206 12.6892C7.71263 13.0902 7.01077 13.3512 6.17944 13.2732C4.55064 13.1204 3.20707 12.4736 2.1228 11.2439C1.58112 10.6295 1.06364 9.77565 0.688232 8.8728C0.31314 7.97069 0.076178 7.01056 0.102295 6.1853C0.154585 4.53754 0.97729 3.27492 2.12671 2.12671C3.27513 0.979313 4.54 0.153258 6.18628 0.102295ZM6.18921 2.29761C5.5637 2.30016 5.04848 2.32776 4.58179 2.46167C4.1183 2.5947 3.69821 2.83433 3.26636 3.26636C2.83455 3.69835 2.59572 4.11847 2.46265 4.58179C2.32869 5.04838 2.30016 5.56344 2.29761 6.18921C2.29507 6.81337 2.32518 7.58038 2.46362 8.30054C2.60255 9.02317 2.84776 9.68431 3.26636 10.1101C3.47169 10.3189 3.81073 10.5011 4.1814 10.6638C4.36507 10.7444 4.55359 10.8195 4.73315 10.8894C4.91199 10.9591 5.0841 11.0241 5.23022 11.0857C5.37259 11.1457 5.45898 11.1721 5.51831 11.1814C5.5724 11.1898 5.60509 11.1852 5.64233 11.1736C5.67659 11.1629 5.74677 11.1333 5.82593 11.114C5.91273 11.0929 6.02572 11.0772 6.18921 11.0779C6.50702 11.0792 6.87758 11.1402 7.21265 11.1687C7.55821 11.198 7.8799 11.1953 8.14624 11.0857C8.44404 10.963 8.82205 10.829 9.19312 10.6648C9.563 10.5011 9.90251 10.3178 10.1101 10.1101C10.3177 9.9024 10.5011 9.56295 10.6648 9.19312C10.8289 8.8222 10.9631 8.44402 11.0857 8.14624C11.1953 7.87976 11.198 7.55816 11.1687 7.21265C11.1403 6.87762 11.0792 6.50716 11.0779 6.18921C11.0772 6.02563 11.0929 5.91273 11.114 5.82593C11.1333 5.74648 11.163 5.67551 11.1736 5.64136C11.1851 5.60438 11.1898 5.57213 11.1814 5.51831C11.1721 5.45899 11.1457 5.37262 11.0857 5.23022C11.0241 5.08406 10.9591 4.91199 10.8894 4.73315C10.8195 4.55357 10.7444 4.36508 10.6638 4.1814C10.5011 3.81076 10.3188 3.47181 10.1101 3.26636C9.68451 2.84758 9.0233 2.60154 8.30054 2.46265C7.58032 2.32427 6.81309 2.29507 6.18921 2.29761Z" fill="white" stroke="white" stroke-width="0.2"/>
</svg>
